<?xml version="1.0" encoding="UTF-8" ?>
<svg version="1.1" width="48" height="48" xmlns="http://www.w3.org/2000/svg" shape-rendering="crispEdges">
<rect x="0" y="2" width="48" height="2" fill="#49527E" />
<rect x="0" y="3" width="2" height="42" fill="#49527E" />
<rect x="2" y="3" width="44" height="2" fill="#B1B8C0" />
<rect x="45" y="3" width="2" height="41" fill="#49527E" />
<rect x="47" y="3" width="2" height="42" fill="#00000E" />
<rect x="2" y="5" width="2" height="38" fill="#B1B8C0" />
<rect x="3" y="5" width="42" height="2" fill="#49527E" />
<rect x="3" y="6" width="2" height="5" fill="#00000E" />
<rect x="5" y="6" width="26" height="3" fill="#49527E" />
<rect x="30" y="6" width="2" height="5" fill="#00000E" />
<rect x="32" y="6" width="3" height="3" fill="#49527E" />
<rect x="35" y="6" width="2" height="5" fill="#00000E" />
<rect x="36" y="6" width="3" height="3" fill="#49527E" />
<rect x="39" y="6" width="2" height="5" fill="#00000E" />
<rect x="41" y="6" width="3" height="3" fill="#49527E" />
<rect x="44" y="6" width="2" height="5" fill="#00000E" />
<rect x="5" y="9" width="26" height="2" fill="#00000E" />
<rect x="32" y="9" width="3" height="2" fill="#00000E" />
<rect x="36" y="9" width="3" height="2" fill="#00000E" />
<rect x="41" y="9" width="3" height="2" fill="#00000E" />
<rect x="3" y="11" width="42" height="2" fill="#B1B8C0" />
<rect x="3" y="12" width="41" height="2" fill="#49527E" />
<rect x="44" y="12" width="2" height="30" fill="#B1B8C0" />
<rect x="3" y="14" width="2" height="27" fill="#49527E" />
<rect x="5" y="14" width="39" height="27" fill="#FEFFFF" />
<rect x="3" y="41" width="41" height="2" fill="#B1B8C0" />
<rect x="2" y="42" width="44" height="2" fill="#49527E" />
<rect x="2" y="44" width="45" height="2" fill="#00000E" />
</svg>
