<?xml version="1.0" encoding="UTF-8" ?>
<svg version="1.1" width="32" height="32" xmlns="http://www.w3.org/2000/svg" shape-rendering="crispEdges">
<rect x="8" y="2" width="16" height="1" fill="#A9A5AF" />
<rect x="8" y="3" width="1" height="9" fill="#A9A5AF" />
<rect x="9" y="3" width="14" height="9" fill="#FBFCFC" />
<rect x="23" y="3" width="1" height="1" fill="#A9A5AF" />
<rect x="24" y="3" width="1" height="1" fill="#000000" />
<rect x="23" y="4" width="1" height="15" fill="#FBFCFC" />
<rect x="24" y="4" width="1" height="20" fill="#A9A5AF" />
<rect x="25" y="4" width="1" height="1" fill="#000000" />
<rect x="25" y="5" width="1" height="19" fill="#A9A5AF" />
<rect x="26" y="5" width="1" height="1" fill="#000000" />
<rect x="26" y="6" width="1" height="19" fill="#A9A5AF" />
<rect x="27" y="6" width="1" height="1" fill="#000000" />
<rect x="27" y="7" width="1" height="22" fill="#A9A5AF" />
<rect x="28" y="7" width="1" height="23" fill="#000000" />
<rect x="7" y="12" width="4" height="1" fill="#517B81" />
<rect x="11" y="12" width="12" height="1" fill="#FBFCFC" />
<rect x="5" y="13" width="2" height="1" fill="#517B81" />
<rect x="7" y="13" width="2" height="3" fill="#8CFBA2" />
<rect x="9" y="13" width="5" height="1" fill="#517B81" />
<rect x="14" y="13" width="9" height="1" fill="#FBFCFC" />
<rect x="2" y="14" width="1" height="5" fill="#517B81" />
<rect x="4" y="14" width="2" height="1" fill="#517B81" />
<rect x="6" y="14" width="1" height="1" fill="#8CFBA2" />
<rect x="9" y="14" width="2" height="1" fill="#517B81" />
<rect x="11" y="14" width="1" height="2" fill="#8CFBA2" />
<rect x="12" y="14" width="1" height="1" fill="#517B81" />
<rect x="13" y="14" width="1" height="1" fill="#000000" />
<rect x="14" y="14" width="1" height="1" fill="#517B81" />
<rect x="15" y="14" width="1" height="1" fill="#FBFCFC" />
<rect x="16" y="14" width="1" height="5" fill="#517B81" />
<rect x="17" y="14" width="6" height="1" fill="#FBFCFC" />
<rect x="3" y="15" width="1" height="1" fill="#000000" />
<rect x="4" y="15" width="1" height="1" fill="#517B81" />
<rect x="5" y="15" width="1" height="1" fill="#8CFBA2" />
<rect x="6" y="15" width="1" height="2" fill="#517B81" />
<rect x="9" y="15" width="1" height="1" fill="#517B81" />
<rect x="10" y="15" width="1" height="4" fill="#000000" />
<rect x="12" y="15" width="1" height="1" fill="#8CFBA2" />
<rect x="13" y="15" width="1" height="2" fill="#517B81" />
<rect x="14" y="15" width="2" height="1" fill="#000000" />
<rect x="17" y="15" width="1" height="4" fill="#000000" />
<rect x="18" y="15" width="5" height="5" fill="#FBFCFC" />
<rect x="3" y="16" width="1" height="1" fill="#517B81" />
<rect x="4" y="16" width="2" height="1" fill="#000000" />
<rect x="7" y="16" width="3" height="1" fill="#000000" />
<rect x="11" y="16" width="2" height="1" fill="#517B81" />
<rect x="14" y="16" width="1" height="1" fill="#000000" />
<rect x="15" y="16" width="1" height="1" fill="#517B81" />
<rect x="3" y="17" width="1" height="1" fill="#000000" />
<rect x="4" y="17" width="2" height="1" fill="#517B81" />
<rect x="6" y="17" width="1" height="2" fill="#000000" />
<rect x="7" y="17" width="2" height="3" fill="#8CFBA2" />
<rect x="9" y="17" width="1" height="3" fill="#517B81" />
<rect x="11" y="17" width="1" height="3" fill="#517B81" />
<rect x="12" y="17" width="2" height="1" fill="#000000" />
<rect x="14" y="17" width="1" height="1" fill="#517B81" />
<rect x="15" y="17" width="1" height="1" fill="#000000" />
<rect x="4" y="18" width="1" height="2" fill="#517B81" />
<rect x="5" y="18" width="1" height="2" fill="#8CFBA2" />
<rect x="12" y="18" width="1" height="1" fill="#000000" />
<rect x="13" y="18" width="1" height="2" fill="#517B81" />
<rect x="14" y="18" width="1" height="3" fill="#000000" />
<rect x="15" y="18" width="1" height="2" fill="#A9A5AF" />
<rect x="6" y="19" width="1" height="1" fill="#8CFBA2" />
<rect x="10" y="19" width="1" height="1" fill="#517B81" />
<rect x="12" y="19" width="1" height="1" fill="#517B81" />
<rect x="16" y="19" width="2" height="1" fill="#FBFCFC" />
<rect x="23" y="19" width="1" height="4" fill="#A9A5AF" />
<rect x="3" y="20" width="1" height="1" fill="#517B81" />
<rect x="4" y="20" width="10" height="1" fill="#000000" />
<rect x="15" y="20" width="1" height="1" fill="#000000" />
<rect x="16" y="20" width="7" height="1" fill="#A9A5AF" />
<rect x="8" y="21" width="1" height="8" fill="#A9A5AF" />
<rect x="9" y="21" width="2" height="7" fill="#FBFCFC" />
<rect x="11" y="21" width="6" height="1" fill="#A9A5AF" />
<rect x="17" y="21" width="4" height="7" fill="#FBFCFC" />
<rect x="21" y="21" width="2" height="1" fill="#A9A5AF" />
<rect x="11" y="22" width="1" height="6" fill="#FBFCFC" />
<rect x="12" y="22" width="5" height="1" fill="#A9A5AF" />
<rect x="21" y="22" width="2" height="6" fill="#FBFCFC" />
<rect x="12" y="23" width="5" height="5" fill="#FBFCFC" />
<rect x="23" y="23" width="1" height="5" fill="#FBFCFC" />
<rect x="24" y="24" width="2" height="4" fill="#FBFCFC" />
<rect x="26" y="25" width="1" height="3" fill="#FBFCFC" />
<rect x="9" y="28" width="18" height="1" fill="#A9A5AF" />
<rect x="10" y="29" width="18" height="1" fill="#000000" />
</svg>