<?xml version="1.0" encoding="UTF-8" ?>
<svg version="1.1" width="32" height="32" xmlns="http://www.w3.org/2000/svg" shape-rendering="crispEdges">
<rect x="24" y="0" width="6" height="1" fill="#14357D" />
<rect x="22" y="1" width="2" height="1" fill="#14357D" />
<rect x="24" y="1" width="1" height="1" fill="#2765BF" />
<rect x="25" y="1" width="1" height="1" fill="#B2B6B9" />
<rect x="26" y="1" width="3" height="3" fill="#F0F5F4" />
<rect x="29" y="1" width="2" height="1" fill="#14357D" />
<rect x="13" y="2" width="7" height="1" fill="#294588" />
<rect x="21" y="2" width="1" height="1" fill="#14357D" />
<rect x="22" y="2" width="1" height="1" fill="#2765BF" />
<rect x="23" y="2" width="1" height="1" fill="#B2B6B9" />
<rect x="24" y="2" width="2" height="1" fill="#F0F5F4" />
<rect x="29" y="2" width="1" height="4" fill="#F0F5F4" />
<rect x="30" y="2" width="1" height="1" fill="#14357D" />
<rect x="11" y="3" width="2" height="1" fill="#294588" />
<rect x="13" y="3" width="8" height="1" fill="#14357D" />
<rect x="21" y="3" width="2" height="1" fill="#B2B6B9" />
<rect x="23" y="3" width="2" height="1" fill="#3094EC" />
<rect x="25" y="3" width="1" height="1" fill="#F0F5F4" />
<rect x="30" y="3" width="1" height="1" fill="#F0F5F4" />
<rect x="31" y="3" width="1" height="5" fill="#14357D" />
<rect x="9" y="4" width="2" height="1" fill="#294588" />
<rect x="11" y="4" width="2" height="1" fill="#14357D" />
<rect x="13" y="4" width="7" height="1" fill="#2765BF" />
<rect x="20" y="4" width="3" height="1" fill="#14357D" />
<rect x="23" y="4" width="1" height="1" fill="#2765BF" />
<rect x="24" y="4" width="3" height="1" fill="#3094EC" />
<rect x="27" y="4" width="2" height="1" fill="#F0F5F4" />
<rect x="30" y="4" width="1" height="4" fill="#B2B6B9" />
<rect x="8" y="5" width="1" height="1" fill="#294588" />
<rect x="9" y="5" width="1" height="1" fill="#14357D" />
<rect x="10" y="5" width="1" height="1" fill="#193D88" />
<rect x="11" y="5" width="3" height="1" fill="#2765BF" />
<rect x="14" y="5" width="6" height="4" fill="#3094EC" />
<rect x="20" y="5" width="3" height="1" fill="#2765BF" />
<rect x="23" y="5" width="2" height="1" fill="#193D88" />
<rect x="25" y="5" width="2" height="1" fill="#2765BF" />
<rect x="27" y="5" width="1" height="1" fill="#3094EC" />
<rect x="28" y="5" width="1" height="1" fill="#F0F5F4" />
<rect x="7" y="6" width="2" height="1" fill="#14357D" />
<rect x="9" y="6" width="2" height="1" fill="#2765BF" />
<rect x="11" y="6" width="3" height="5" fill="#3094EC" />
<rect x="20" y="6" width="2" height="5" fill="#3094EC" />
<rect x="22" y="6" width="3" height="1" fill="#2765BF" />
<rect x="25" y="6" width="1" height="1" fill="#193D88" />
<rect x="26" y="6" width="3" height="1" fill="#2765BF" />
<rect x="29" y="6" width="1" height="3" fill="#B2B6B9" />
<rect x="6" y="7" width="2" height="1" fill="#14357D" />
<rect x="8" y="7" width="2" height="1" fill="#2765BF" />
<rect x="10" y="7" width="1" height="3" fill="#3094EC" />
<rect x="22" y="7" width="2" height="11" fill="#3094EC" />
<rect x="24" y="7" width="2" height="1" fill="#2765BF" />
<rect x="26" y="7" width="1" height="1" fill="#14357D" />
<rect x="27" y="7" width="2" height="1" fill="#2765BF" />
<rect x="5" y="8" width="2" height="1" fill="#14357D" />
<rect x="7" y="8" width="1" height="1" fill="#2765BF" />
<rect x="8" y="8" width="2" height="2" fill="#3094EC" />
<rect x="24" y="8" width="1" height="10" fill="#3094EC" />
<rect x="25" y="8" width="2" height="1" fill="#2765BF" />
<rect x="27" y="8" width="1" height="1" fill="#14357D" />
<rect x="28" y="8" width="1" height="2" fill="#2765BF" />
<rect x="30" y="8" width="1" height="1" fill="#14357D" />
<rect x="4" y="9" width="1" height="1" fill="#294588" />
<rect x="5" y="9" width="1" height="1" fill="#14357D" />
<rect x="6" y="9" width="2" height="1" fill="#3094EC" />
<rect x="14" y="9" width="1" height="1" fill="#3094EC" />
<rect x="15" y="9" width="3" height="1" fill="#2765BF" />
<rect x="18" y="9" width="2" height="1" fill="#3094EC" />
<rect x="25" y="9" width="1" height="9" fill="#3094EC" />
<rect x="26" y="9" width="1" height="1" fill="#2765BF" />
<rect x="27" y="9" width="1" height="1" fill="#193D88" />
<rect x="29" y="9" width="1" height="1" fill="#14357D" />
<rect x="4" y="10" width="1" height="2" fill="#14357D" />
<rect x="5" y="10" width="1" height="1" fill="#2765BF" />
<rect x="6" y="10" width="1" height="1" fill="#3094EC" />
<rect x="7" y="10" width="3" height="1" fill="#F0F5F4" />
<rect x="10" y="10" width="1" height="2" fill="#2765BF" />
<rect x="14" y="10" width="1" height="1" fill="#2765BF" />
<rect x="15" y="10" width="3" height="1" fill="#B2B6B9" />
<rect x="18" y="10" width="2" height="1" fill="#2765BF" />
<rect x="26" y="10" width="1" height="9" fill="#3094EC" />
<rect x="27" y="10" width="1" height="1" fill="#2765BF" />
<rect x="28" y="10" width="1" height="2" fill="#14357D" />
<rect x="3" y="11" width="1" height="1" fill="#294588" />
<rect x="5" y="11" width="1" height="1" fill="#3094EC" />
<rect x="6" y="11" width="3" height="1" fill="#F0F5F4" />
<rect x="9" y="11" width="1" height="1" fill="#3094EC" />
<rect x="11" y="11" width="2" height="1" fill="#3094EC" />
<rect x="13" y="11" width="1" height="1" fill="#2765BF" />
<rect x="14" y="11" width="5" height="3" fill="#F0F5F4" />
<rect x="19" y="11" width="1" height="1" fill="#B2B6B9" />
<rect x="20" y="11" width="1" height="1" fill="#2765BF" />
<rect x="21" y="11" width="1" height="1" fill="#3094EC" />
<rect x="27" y="11" width="1" height="8" fill="#3094EC" />
<rect x="29" y="11" width="1" height="2" fill="#14357D" />
<rect x="3" y="12" width="1" height="2" fill="#14357D" />
<rect x="4" y="12" width="1" height="1" fill="#B2B6B9" />
<rect x="5" y="12" width="3" height="1" fill="#F0F5F4" />
<rect x="8" y="12" width="1" height="1" fill="#3094EC" />
<rect x="9" y="12" width="1" height="1" fill="#2765BF" />
<rect x="10" y="12" width="2" height="11" fill="#3094EC" />
<rect x="12" y="12" width="1" height="3" fill="#2765BF" />
<rect x="13" y="12" width="1" height="2" fill="#B2B6B9" />
<rect x="19" y="12" width="1" height="2" fill="#F0F5F4" />
<rect x="20" y="12" width="1" height="2" fill="#B2B6B9" />
<rect x="21" y="12" width="1" height="3" fill="#2765BF" />
<rect x="28" y="12" width="1" height="1" fill="#2765BF" />
<rect x="2" y="13" width="1" height="3" fill="#14357D" />
<rect x="4" y="13" width="3" height="1" fill="#F0F5F4" />
<rect x="7" y="13" width="1" height="1" fill="#3094EC" />
<rect x="8" y="13" width="1" height="2" fill="#2765BF" />
<rect x="9" y="13" width="1" height="9" fill="#3094EC" />
<rect x="28" y="13" width="1" height="6" fill="#3094EC" />
<rect x="29" y="13" width="1" height="2" fill="#193D88" />
<rect x="30" y="13" width="1" height="4" fill="#14357D" />
<rect x="3" y="14" width="1" height="3" fill="#C6BEAF" />
<rect x="4" y="14" width="2" height="1" fill="#F0F5F4" />
<rect x="6" y="14" width="1" height="1" fill="#3094EC" />
<rect x="7" y="14" width="1" height="9" fill="#2765BF" />
<rect x="13" y="14" width="1" height="2" fill="#2765BF" />
<rect x="14" y="14" width="1" height="1" fill="#B2B6B9" />
<rect x="15" y="14" width="2" height="1" fill="#F0F5F4" />
<rect x="17" y="14" width="1" height="1" fill="#3094EC" />
<rect x="18" y="14" width="3" height="1" fill="#2765BF" />
<rect x="4" y="15" width="1" height="1" fill="#F0F5F4" />
<rect x="5" y="15" width="1" height="2" fill="#3094EC" />
<rect x="6" y="15" width="1" height="6" fill="#2765BF" />
<rect x="8" y="15" width="1" height="4" fill="#3094EC" />
<rect x="12" y="15" width="1" height="10" fill="#3094EC" />
<rect x="14" y="15" width="4" height="1" fill="#2765BF" />
<rect x="18" y="15" width="4" height="3" fill="#3094EC" />
<rect x="29" y="15" width="1" height="1" fill="#2765BF" />
<rect x="1" y="16" width="1" height="3" fill="#294588" />
<rect x="2" y="16" width="1" height="3" fill="#C6BEAF" />
<rect x="4" y="16" width="1" height="1" fill="#3094EC" />
<rect x="13" y="16" width="5" height="2" fill="#3094EC" />
<rect x="29" y="16" width="1" height="3" fill="#3094EC" />
<rect x="3" y="17" width="3" height="1" fill="#2765BF" />
<rect x="30" y="17" width="1" height="1" fill="#193D88" />
<rect x="3" y="18" width="2" height="3" fill="#2765BF" />
<rect x="5" y="18" width="1" height="5" fill="#14357D" />
<rect x="13" y="18" width="4" height="1" fill="#3094EC" />
<rect x="17" y="18" width="9" height="1" fill="#2765BF" />
<rect x="30" y="18" width="1" height="4" fill="#14357D" />
<rect x="1" y="19" width="1" height="3" fill="#14357D" />
<rect x="2" y="19" width="1" height="3" fill="#AFB1B2" />
<rect x="8" y="19" width="1" height="6" fill="#2765BF" />
<rect x="13" y="19" width="2" height="1" fill="#3094EC" />
<rect x="15" y="19" width="2" height="1" fill="#2765BF" />
<rect x="17" y="19" width="11" height="1" fill="#F0F5F4" />
<rect x="28" y="19" width="1" height="1" fill="#B2B6B9" />
<rect x="29" y="19" width="1" height="3" fill="#2765BF" />
<rect x="13" y="20" width="1" height="5" fill="#3094EC" />
<rect x="14" y="20" width="1" height="3" fill="#2765BF" />
<rect x="15" y="20" width="1" height="1" fill="#B2B6B9" />
<rect x="16" y="20" width="9" height="1" fill="#F0F5F4" />
<rect x="25" y="20" width="2" height="1" fill="#B2B6B9" />
<rect x="27" y="20" width="1" height="1" fill="#2765BF" />
<rect x="28" y="20" width="1" height="2" fill="#3094EC" />
<rect x="3" y="21" width="1" height="3" fill="#2765BF" />
<rect x="4" y="21" width="1" height="1" fill="#14357D" />
<rect x="6" y="21" width="1" height="3" fill="#14357D" />
<rect x="15" y="21" width="8" height="1" fill="#F0F5F4" />
<rect x="23" y="21" width="4" height="1" fill="#2765BF" />
<rect x="27" y="21" width="1" height="2" fill="#3094EC" />
<rect x="1" y="22" width="1" height="1" fill="#102B63" />
<rect x="2" y="22" width="1" height="1" fill="#B2B6B9" />
<rect x="4" y="22" width="1" height="3" fill="#2765BF" />
<rect x="9" y="22" width="1" height="3" fill="#2765BF" />
<rect x="15" y="22" width="5" height="1" fill="#F0F5F4" />
<rect x="20" y="22" width="4" height="1" fill="#2765BF" />
<rect x="24" y="22" width="3" height="2" fill="#3094EC" />
<rect x="28" y="22" width="1" height="2" fill="#2765BF" />
<rect x="29" y="22" width="1" height="2" fill="#14357D" />
<rect x="0" y="23" width="1" height="5" fill="#14357D" />
<rect x="1" y="23" width="1" height="4" fill="#B2B6B9" />
<rect x="2" y="23" width="1" height="1" fill="#2765BF" />
<rect x="5" y="23" width="1" height="2" fill="#2765BF" />
<rect x="7" y="23" width="1" height="2" fill="#14357D" />
<rect x="10" y="23" width="1" height="3" fill="#2765BF" />
<rect x="11" y="23" width="1" height="1" fill="#3094EC" />
<rect x="14" y="23" width="1" height="3" fill="#3094EC" />
<rect x="15" y="23" width="5" height="1" fill="#2765BF" />
<rect x="20" y="23" width="4" height="2" fill="#3094EC" />
<rect x="27" y="23" width="1" height="2" fill="#2765BF" />
<rect x="2" y="24" width="1" height="2" fill="#F0F5F4" />
<rect x="3" y="24" width="1" height="1" fill="#3094EC" />
<rect x="6" y="24" width="1" height="1" fill="#2765BF" />
<rect x="11" y="24" width="1" height="3" fill="#2765BF" />
<rect x="15" y="24" width="5" height="2" fill="#3094EC" />
<rect x="24" y="24" width="1" height="1" fill="#3094EC" />
<rect x="25" y="24" width="2" height="2" fill="#2765BF" />
<rect x="28" y="24" width="1" height="1" fill="#14357D" />
<rect x="3" y="25" width="2" height="3" fill="#F0F5F4" />
<rect x="5" y="25" width="3" height="1" fill="#B2B6B9" />
<rect x="8" y="25" width="1" height="1" fill="#14357D" />
<rect x="9" y="25" width="1" height="1" fill="#193D88" />
<rect x="12" y="25" width="2" height="2" fill="#2765BF" />
<rect x="20" y="25" width="3" height="1" fill="#3094EC" />
<rect x="23" y="25" width="2" height="2" fill="#2765BF" />
<rect x="27" y="25" width="1" height="1" fill="#14357D" />
<rect x="2" y="26" width="1" height="3" fill="#B2B6B9" />
<rect x="5" y="26" width="1" height="4" fill="#F0F5F4" />
<rect x="6" y="26" width="3" height="1" fill="#B2B6B9" />
<rect x="9" y="26" width="2" height="1" fill="#14357D" />
<rect x="14" y="26" width="9" height="2" fill="#2765BF" />
<rect x="25" y="26" width="1" height="1" fill="#2765BF" />
<rect x="26" y="26" width="1" height="1" fill="#14357D" />
<rect x="1" y="27" width="1" height="1" fill="#2765BF" />
<rect x="6" y="27" width="1" height="3" fill="#F0F5F4" />
<rect x="7" y="27" width="4" height="1" fill="#B2B6B9" />
<rect x="11" y="27" width="2" height="1" fill="#14357D" />
<rect x="13" y="27" width="1" height="1" fill="#2765BF" />
<rect x="23" y="27" width="1" height="1" fill="#2765BF" />
<rect x="24" y="27" width="2" height="1" fill="#14357D" />
<rect x="1" y="28" width="1" height="2" fill="#14357D" />
<rect x="3" y="28" width="1" height="2" fill="#B2B6B9" />
<rect x="4" y="28" width="1" height="1" fill="#F0F5F4" />
<rect x="7" y="28" width="3" height="1" fill="#F0F5F4" />
<rect x="10" y="28" width="3" height="1" fill="#B2B6B9" />
<rect x="13" y="28" width="3" height="2" fill="#14357D" />
<rect x="16" y="28" width="6" height="1" fill="#2765BF" />
<rect x="22" y="28" width="2" height="1" fill="#14357D" />
<rect x="2" y="29" width="1" height="1" fill="#193D88" />
<rect x="4" y="29" width="1" height="2" fill="#B2B6B9" />
<rect x="7" y="29" width="2" height="1" fill="#F0F5F4" />
<rect x="9" y="29" width="2" height="1" fill="#B2B6B9" />
<rect x="11" y="29" width="2" height="1" fill="#2765BF" />
<rect x="16" y="29" width="6" height="1" fill="#14357D" />
<rect x="2" y="30" width="2" height="1" fill="#14357D" />
<rect x="5" y="30" width="5" height="1" fill="#B2B6B9" />
<rect x="10" y="30" width="3" height="1" fill="#14357D" />
<rect x="4" y="31" width="6" height="1" fill="#14357D" />
</svg>